<svg xmlns="http://www.w3.org/2000/svg" version="1.1" xmlns:xlink="http://www.w3.org/1999/xlink" xmlns:svgjs="http://svgjs.com/svgjs" width="100" height="100" viewBox="0 0 100 100"><g class="wrap" transform="matrix(1,0,0,1,0,0)"><defs class="background">
			<g id="background">
<path fill="url(#background-gradient)" stroke="none" d=" M 85.35 85.35 Q 100 70.65 100 50 100 29.3 85.35 14.7 70.65 0 50 0 29.3 0 14.6 14.7 0 29.3 0 50 0 70.65 14.6 85.35 29.3 100 50 100 70.65 100 85.35 85.35 Z"></path>
</g><g id="middle-1">
<path fill="#ffffff" fill-opacity="0.6" stroke="none" d=" M 84 84 Q 98.05 70 98.05 50 98.05 30.1 84 16.05 69.9 1.9 50 1.9 30.1 1.9 16.05 16.05 1.9 30.1 1.9 50 1.9 70 16.05 84 30.1 98.05 50 98.05 69.9 98.05 84 84 Z"></path>
</g><mask id="mask">
<path fill="#FFFFFF" stroke="none" d=" M 85.35 85.35 Q 100 70.65 100 50 100 29.3 85.35 14.7 70.65 0 50 0 29.3 0 14.6 14.7 0 29.3 0 50 0 70.65 14.6 85.35 29.3 100 50 100 70.65 100 85.35 85.35 Z"></path>
</mask>
			
	<linearGradient id="background-gradient" x1="0" y1="0" y2="1" x2="0" gradientTransform="rotate(180 0.5 0.5)">
		<stop stop-color="#dbceca" offset="0%"></stop>
		<stop stop-color="#dbceca" offset="100%"></stop>
	</linearGradient>

			
			
			
			
		<linearGradient class="shapgradient" gradientTransform="rotate(0 0.5 0.5)" id="SvgjsLinearGradient1005"><stop stop-color="#343435" offset="0"></stop><stop stop-color="#343435" offset="1"></stop></linearGradient></defs><use xlink:href="#background" fill="url(#background-gradient)" class="background"></use><use xlink:href="#middle-1" class="background"></use><g class="geditable"><g mask="url(#mask)" fill="url(#SvgjsLinearGradient1005)" class="editable" transform="matrix(0.85,0,0,0.85,7.500000286102299,7.500000429153445)"><path d="M335.944616598458 474.94277290218673C339.32161659845804 468.37077290218673 341.120616598458 461.0487729021867 341.120616598458 453.44477290218674C341.120616598458 377.03777290218676 292.081616598458 311.87977290218674 223.82861659845804 287.76177290218675C246.29961659845804 270.30577290218673 260.786616598458 243.03677290218673 260.786616598458 212.44477290218674C260.786616598458 159.87777290218673 218.020616598458 117.11077290218674 165.453616598458 117.11077290218674S70.12061659845801 159.87777290218673 70.12061659845801 212.44377290218674C70.12061659845801 243.03577290218675 84.60861659845801 270.30477290218676 107.07961659845802 287.7607729021867C38.82661659845803 311.8787729021867 -10.212383401541985 377.0367729021867 -10.212383401541985 453.4437729021867C-10.212383401541985 461.0347729021867 -8.419383401541978 468.3447729021867 -5.056383401541979 474.9047729021867C-21.86338340154198 480.69977290218674 -58.41238340154198 502.4557729021867 -58.41238340154198 549.8437729021866C-58.41238340154198 593.5517729021867 -22.853383401541976 629.1107729021867 20.853616598458018 629.1107729021867H310.053616598458C353.76161659845803 629.1107729021867 389.320616598458 593.5517729021867 389.320616598458 549.8437729021866C389.319616598458 515.2017729021867 366.972616598458 485.6987729021867 335.944616598458 474.9427729021867ZM100.12061659845801 212.4437729021867C100.12061659845801 176.4197729021867 129.428616598458 147.11077290218668 165.453616598458 147.11077290218668C201.47761659845804 147.11077290218668 230.786616598458 176.4197729021867 230.786616598458 212.4437729021867S201.47861659845802 277.7777729021867 165.453616598458 277.7777729021867S100.12061659845801 248.46877290218669 100.12061659845801 212.4437729021867ZM165.453616598458 307.7777729021867C245.774616598458 307.7777729021867 311.120616598458 373.1237729021867 311.120616598458 453.4447729021867C311.120616598458 462.90477290218666 303.462616598458 470.57777290218667 293.986616598458 470.57777290218667H180.45361659845798V388.1107729021867H181.51961659845796C199.82661659845797 388.1107729021867 214.71961659845795 403.0047729021867 214.71961659845795 421.31077290218667C214.71961659845795 429.59477290218666 221.43561659845795 436.31077290218667 229.71961659845795 436.31077290218667H261.85361659845796C270.13761659845795 436.31077290218667 276.85361659845796 429.59477290218666 276.85361659845796 421.31077290218667S270.13761659845795 406.31077290218667 261.85361659845796 406.31077290218667H242.92161659845794C236.16961659845794 378.67877290218667 211.20161659845797 358.1107729021867 181.51961659845796 358.1107729021867H149.37061659845796C119.69561659845795 358.1107729021867 94.73261659845795 378.6757729021867 87.98361659845796 406.31077290218667H69.05361659845795C60.76961659845796 406.31077290218667 54.05361659845795 413.0267729021867 54.05361659845795 421.31077290218667S60.76961659845796 436.31077290218667 69.05361659845795 436.31077290218667H101.18661659845796C109.47061659845795 436.31077290218667 116.18661659845796 429.57877290218664 116.18661659845796 421.29477290218665C116.18661659845796 402.99677290218665 131.07261659845796 388.1107729021866 149.37061659845796 388.1107729021866H150.45361659845796V470.5777729021866H36.920616598457954C27.482616598457952 470.5777729021866 19.78761659845796 462.93977290218663 19.78761659845796 453.4447729021866C19.78761659845796 373.1227729021866 85.13261659845796 307.7777729021866 165.45361659845796 307.7777729021866ZM310.053616598458 599.1107729021867H275.411616598458C268.378616598458 562.5537729021867 236.166616598458 534.8437729021867 197.587616598458 534.8437729021867H69.053616598458C60.769616598458015 534.8437729021867 54.05361659845801 541.5597729021868 54.05361659845801 549.8437729021867S60.769616598458015 564.8437729021867 69.053616598458 564.8437729021867H197.587616598458C219.524616598458 564.8437729021867 238.150616598458 579.2587729021868 244.51161659845798 599.1107729021867H20.85361659845799C-6.312383401542007 599.1107729021867 -28.413383401542013 577.0097729021868 -28.413383401542013 549.8437729021867C-28.413383401542013 522.6357729021868 -6.4033834015420155 500.57677290218675 20.85361659845799 500.57677290218675H310.05361659845795C337.21961659845795 500.57677290218675 359.32061659845795 522.6777729021867 359.32061659845795 549.8437729021867S337.21961659845795 599.1107729021867 310.05361659845795 599.1107729021867Z " transform="matrix(0.13400842841910024,0,0,0.13400842841910024,27.82775566586751,0.00001321398272065582)"></path></g></g></g></svg>