<svg xmlns="http://www.w3.org/2000/svg" version="1.1" xmlns:xlink="http://www.w3.org/1999/xlink" xmlns:svgjs="http://svgjs.com/svgjs" width="100" height="100" viewBox="0 0 100 100"><g class="wrap" transform="matrix(1,0,0,1,0,0)"><defs class="background">
			<g id="background">
<path fill="url(#background-gradient)" stroke="none" d=" M 85.35 85.35 Q 100 70.65 100 50 100 29.3 85.35 14.7 70.65 0 50 0 29.3 0 14.6 14.7 0 29.3 0 50 0 70.65 14.6 85.35 29.3 100 50 100 70.65 100 85.35 85.35 Z"></path>
</g><g id="middle-1">
<path fill="#ffffff" fill-opacity="0.6" stroke="none" d=" M 84 84 Q 98.05 70 98.05 50 98.05 30.1 84 16.05 69.9 1.9 50 1.9 30.1 1.9 16.05 16.05 1.9 30.1 1.9 50 1.9 70 16.05 84 30.1 98.05 50 98.05 69.9 98.05 84 84 Z"></path>
</g><mask id="mask">
<path fill="#FFFFFF" stroke="none" d=" M 85.35 85.35 Q 100 70.65 100 50 100 29.3 85.35 14.7 70.65 0 50 0 29.3 0 14.6 14.7 0 29.3 0 50 0 70.65 14.6 85.35 29.3 100 50 100 70.65 100 85.35 85.35 Z"></path>
</mask>
			
	<linearGradient id="background-gradient" x1="0" y1="0" y2="1" x2="0" gradientTransform="rotate(90 0.5 0.5)">
		<stop stop-color="#05b717" offset="0%"></stop>
		<stop stop-color="#0494ff" offset="66%"></stop>
	</linearGradient>

			
			
			
			
		<linearGradient class="shapgradient" gradientTransform="rotate(0 0.5 0.5)" id="SvgjsLinearGradient1004"><stop stop-color="#343435" offset="0"></stop><stop stop-color="#343435" offset="1"></stop></linearGradient></defs><use xlink:href="#background" fill="url(#background-gradient)" class="background"></use><use xlink:href="#middle-1" class="background"></use><g class="geditable"><g mask="url(#mask)" fill="url(#SvgjsLinearGradient1004)" class="editable"><path d="M634.6666666666666 -247.4666666666667H218.66666666666666C192.15666666666667 -247.4666666666667 170.66666666666666 -225.9766666666667 170.66666666666666 -199.4666666666667V88.5333333333333C170.66666666666666 115.0433333333333 192.15666666666667 136.5333333333333 218.66666666666666 136.5333333333333H634.6666666666666C661.1766666666666 136.5333333333333 682.6666666666666 115.0433333333333 682.6666666666666 88.5333333333333V-199.4666666666667C682.6666666666666 -225.9766666666667 661.1766666666666 -247.4666666666667 634.6666666666666 -247.4666666666667ZM634.6666666666666 -199.4666666666667V-158.6616666666667C612.2446666666666 -140.40266666666668 576.4986666666666 -112.01066666666668 500.07966666666664 -52.17166666666668C483.23866666666663 -38.92466666666667 449.8786666666666 -7.099666666666678 426.66666666666663 -7.470666666666659C403.45866666666666 -7.095666666666659 370.0876666666667 -38.92966666666666 353.2536666666666 -52.17166666666668C276.8466666666667 -112.0016666666667 241.09166666666664 -140.3996666666667 218.66666666666666 -158.6616666666667V-199.4666666666667H634.6666666666666ZM218.66666666666666 88.5333333333333V-97.0686666666667C241.58066666666667 -78.8176666666667 274.0756666666666 -53.206666666666706 323.6046666666666 -14.422666666666714C345.46166666666664 2.78233333333327 383.73866666666663 40.763333333333264 426.66666666666663 40.53233333333327C469.3836666666666 40.763333333333264 507.17566666666664 3.3333333333332575 529.7196666666666 -14.414666666666733C579.2476666666666 -53.19766666666675 611.7516666666667 -78.81566666666674 634.6666666666666 -97.06766666666675V88.5333333333333H218.66666666666666Z " transform="matrix(0.1171875,0,0,0.1171875,0,56.5)"></path></g></g></g></svg>