<svg xmlns="http://www.w3.org/2000/svg" version="1.1" xmlns:xlink="http://www.w3.org/1999/xlink" xmlns:svgjs="http://svgjs.com/svgjs" width="175" height="175" viewBox="0 0 100 100"><g class="wrap" transform="matrix(-1,0,0,1,100,0)"><defs class="background">
			<linearGradient id="Gradient_2" gradientUnits="userSpaceOnUse" x1="50" y1="58" x2="50" y2="0" spreadMethod="pad">
<stop offset="0%" stop-color="#FFFFFF" stop-opacity="0.1"></stop>

<stop offset="100%" stop-color="#FFFFFF" stop-opacity="0.7"></stop>
</linearGradient><linearGradient id="Gradient_3" gradientUnits="userSpaceOnUse" x1="57" y1="76" x2="57" y2="0" spreadMethod="pad">
<stop offset="0%" stop-color="#FFFFFF" stop-opacity="0.1"></stop>

<stop offset="100%" stop-color="#FFFFFF" stop-opacity="0.7"></stop>
</linearGradient><linearGradient id="Gradient_4" gradientUnits="userSpaceOnUse" x1="43" y1="76" x2="43" y2="0" spreadMethod="pad">
<stop offset="0%" stop-color="#FFFFFF" stop-opacity="0.1"></stop>

<stop offset="100%" stop-color="#FFFFFF" stop-opacity="0.7"></stop>
</linearGradient><g id="background">
<path fill="url(#background-gradient)" stroke="none" d=" M 86.35 17.6 Q 86.95 15.45 85.75 14.2 84.55 13.05 82.35 13.65 L 80.45 14.1 Q 78.3 14.65 76.55 13.4 74.9 12.2 74.75 9.9 L 74.6 7.95 Q 74.45 5.7 72.95 4.9 71.45 4.2 69.55 5.4 L 67.9 6.4 Q 65.95 7.6 64 6.95 62.05 6.35 61.15 4.2 L 60.45 2.4 Q 59.55 0.25 57.95 0.05 56.3 -0.2 54.8 1.5 L 53.55 3 Q 52.1 4.8 50 4.8 47.9 4.8 46.4 3 L 45.2 1.5 Q 43.7 -0.2 42.05 0.05 40.45 0.25 39.55 2.4 L 38.85 4.2 Q 37.95 6.35 36 6.95 34 7.6 32.05 6.4 L 30.45 5.4 Q 28.55 4.2 27.05 4.9 25.55 5.7 25.4 7.95 L 25.25 9.9 Q 25.1 12.2 23.45 13.4 21.7 14.65 19.5 14.1 L 17.6 13.65 Q 15.45 13.05 14.2 14.2 13.05 15.45 13.65 17.6 L 14.1 19.5 Q 14.65 21.7 13.4 23.45 12.2 25.15 9.9 25.25 L 7.95 25.4 Q 5.7 25.55 4.9 27.05 4.2 28.5 5.4 30.45 L 6.4 32.05 Q 7.65 34.05 7 36 6.35 38.05 4.2 38.85 L 2.4 39.55 Q 0.3 40.45 0.05 42.05 -0.2 43.75 1.5 45.2 L 3.05 46.45 Q 4.8 47.95 4.8 50 4.8 52.1 3.05 53.55 L 1.5 54.8 Q -0.25 56.25 0.05 57.9 0.3 59.55 2.4 60.4 L 4.2 61.15 Q 6.35 62 7 64 7.65 65.95 6.4 67.9 L 5.4 69.55 Q 4.2 71.45 4.9 72.95 5.7 74.45 7.95 74.6 L 9.9 74.75 Q 12.2 74.9 13.4 76.55 14.65 78.3 14.1 80.45 L 13.65 82.35 Q 13.05 84.6 14.2 85.75 15.45 86.95 17.6 86.4 L 19.5 85.95 Q 21.7 85.35 23.45 86.6 25.1 87.8 25.25 90.1 L 25.4 92 Q 25.55 94.3 27.05 95.1 28.55 95.85 30.45 94.6 L 32.05 93.6 Q 34 92.35 36 93 37.95 93.65 38.85 95.8 L 39.55 97.55 Q 40.45 99.7 42.05 99.95 43.7 100.25 45.2 98.45 L 46.4 97 Q 47.9 95.25 50 95.25 52.1 95.25 53.55 97 L 54.8 98.45 Q 56.3 100.25 57.95 99.95 59.55 99.7 60.45 97.55 L 61.15 95.8 Q 62.05 93.65 64 93 65.95 92.35 67.9 93.6 L 69.55 94.6 Q 71.5 95.85 72.95 95.1 74.45 94.3 74.6 92 L 74.75 90.1 Q 74.9 87.8 76.55 86.6 78.3 85.35 80.45 85.95 L 82.35 86.4 Q 84.55 86.95 85.75 85.75 86.95 84.6 86.35 82.35 L 85.9 80.45 Q 85.35 78.3 86.55 76.55 87.8 74.9 90.1 74.75 L 92 74.6 Q 94.3 74.45 95.1 72.95 95.8 71.5 94.6 69.55 L 93.55 67.9 Q 92.3 65.95 93 64 93.65 62 95.75 61.15 L 97.6 60.4 Q 99.7 59.55 99.95 57.9 100.2 56.25 98.45 54.8 L 96.95 53.55 Q 95.25 52.1 95.25 50 95.25 47.95 96.95 46.45 L 98.45 45.2 Q 100.2 43.75 99.95 42.05 99.7 40.45 97.6 39.55 L 95.75 38.85 Q 93.65 38 93 36 92.3 34 93.55 32.05 L 94.6 30.45 Q 95.8 28.5 95.1 27.05 94.3 25.55 92 25.4 L 90.1 25.25 Q 87.8 25.15 86.55 23.45 85.35 21.7 85.9 19.5 L 86.35 17.6 M 50 11.15 Q 66.05 11.15 77.4 22.6 88.85 33.9 88.85 50 88.85 66.05 77.4 77.45 66.05 88.85 50 88.85 33.9 88.85 22.6 77.45 11.15 66.05 11.15 50 11.15 33.9 22.6 22.6 33.9 11.15 50 11.15 M 75.45 24.5 Q 64.9 13.95 50 13.95 35.1 13.95 24.5 24.5 13.95 35.1 13.95 50 13.95 64.9 24.5 75.45 35.1 86 50 86 64.9 86 75.45 75.45 86 64.9 86 50 86 35.1 75.45 24.5 Z"></path>
</g><mask id="mask">
<path fill="#FFFFFF" stroke="none" d=" M 75.45 24.55 Q 64.9 14 50 14 35.1 14 24.55 24.55 14 35.1 14 50.05 14 64.9 24.55 75.45 35.1 86 50 86 64.9 86 75.45 75.45 86 64.9 86 50.05 86 35.1 75.45 24.55 Z"></path>
</mask><g id="gloss-top">
<path fill="url(#Gradient_2)" stroke="none" d=" M 86.35 17.6 Q 86.95 15.45 85.75 14.2 84.55 13.05 82.35 13.65 L 80.45 14.1 Q 78.3 14.65 76.55 13.4 74.9 12.2 74.75 9.9 L 74.6 7.95 Q 74.45 5.7 72.95 4.9 71.45 4.2 69.55 5.4 L 67.9 6.4 Q 65.95 7.6 64 6.95 62.05 6.35 61.15 4.2 L 60.45 2.4 Q 59.55 0.25 57.95 0.05 56.3 -0.2 54.8 1.5 L 53.55 3 Q 52.1 4.8 50 4.8 47.95 4.8 46.45 3 L 45.25 1.5 Q 43.75 -0.2 42.1 0.05 40.45 0.25 39.55 2.4 L 38.9 4.2 Q 38 6.35 36.05 6.95 34.05 7.6 32.1 6.4 L 30.5 5.4 Q 28.6 4.2 27.05 4.9 25.6 5.7 25.45 7.95 L 25.3 9.9 Q 25.15 12.2 23.5 13.4 21.75 14.65 19.55 14.1 L 17.65 13.65 Q 15.45 13.05 14.25 14.2 13.1 15.45 13.65 17.6 L 14.15 19.5 Q 14.7 21.7 13.45 23.45 12.25 25.15 9.95 25.25 L 8 25.4 Q 5.75 25.55 4.95 27.05 4.2 28.5 5.45 30.45 L 6.45 32.05 Q 7.7 34.05 7.05 36 6.35 38.05 4.25 38.85 L 2.45 39.55 Q 0.8 40.25 0.25 41.5 -0.25 42.7 0.55 44 10.05 50.8 22.6 54.6 35.65 58.5 50 58.5 64.35 58.5 77.4 54.6 89.95 50.8 99.5 44 100.3 42.7 99.75 41.5 99.2 40.25 97.6 39.55 L 95.75 38.85 Q 93.65 38 93 36 92.3 34 93.55 32.05 L 94.6 30.45 Q 95.8 28.5 95.1 27.05 94.3 25.55 92 25.4 L 90.1 25.25 Q 87.8 25.15 86.55 23.45 85.35 21.7 85.9 19.5 L 86.35 17.6 Z"></path>
</g><g id="gloss-right">
<path fill="url(#Gradient_3)" stroke="none" d=" M 86.35 17.6 Q 86.95 15.45 85.75 14.2 84.55 13.05 82.35 13.65 L 80.45 14.1 Q 78.3 14.65 76.55 13.4 74.9 12.2 74.75 9.9 L 74.6 7.95 Q 74.45 5.7 72.95 4.9 71.45 4.2 69.55 5.4 L 67.9 6.4 Q 65.95 7.6 64 6.95 62.05 6.35 61.15 4.2 L 60.45 2.4 Q 59.55 0.25 57.95 0.05 56.3 -0.2 54.8 1.5 L 53.55 3 Q 52.1 4.8 50 4.8 47.95 4.8 46.45 3 L 45.25 1.5 Q 43.75 -0.2 42.1 0.05 40.45 0.25 39.55 2.4 L 38.9 4.2 Q 38 6.35 36.05 6.95 34.05 7.6 32.1 6.4 L 30.5 5.4 Q 28.6 4.2 27.05 4.9 25.6 5.7 25.45 7.95 L 25.3 9.9 Q 25.15 12.2 23.5 13.4 21.75 14.65 19.55 14.1 L 17.65 13.65 Q 15.45 13.05 14.25 14.2 13.1 15.45 13.65 17.6 L 14.15 19.5 Q 14.4 20.45 14.25 21.15 20.5 30.1 28.85 38.5 37.45 47.1 47.75 54.65 67.05 68.75 87.6 75.6 88.65 74.85 90.1 74.75 L 92 74.6 Q 94.3 74.45 95.1 72.95 95.8 71.5 94.6 69.55 L 93.55 67.9 Q 92.3 65.95 93 64 93.65 62 95.75 61.15 L 97.6 60.4 Q 99.7 59.55 99.95 57.9 100.2 56.25 98.45 54.8 L 96.95 53.55 Q 95.25 52.1 95.25 50 95.25 47.95 96.95 46.45 L 98.45 45.2 Q 100.2 43.75 99.95 42.05 99.7 40.45 97.6 39.55 L 95.75 38.85 Q 93.65 38 93 36 92.3 34 93.55 32.05 L 94.6 30.45 Q 95.8 28.5 95.1 27.05 94.3 25.55 92 25.4 L 90.1 25.25 Q 87.8 25.15 86.55 23.45 85.35 21.7 85.9 19.5 L 86.35 17.6 Z"></path>
</g><g id="gloss-left">
<path fill="url(#Gradient_4)" stroke="none" d=" M 85.85 19.5 L 86.35 17.6 Q 86.9 15.45 85.7 14.2 84.55 13.05 82.3 13.65 L 80.45 14.1 Q 78.25 14.65 76.5 13.4 74.85 12.2 74.7 9.9 L 74.55 7.95 Q 74.4 5.7 72.95 4.9 71.4 4.2 69.5 5.4 L 67.85 6.4 Q 65.9 7.6 63.95 6.95 62 6.35 61.1 4.2 L 60.4 2.4 Q 59.55 0.25 57.9 0.05 56.25 -0.2 54.75 1.5 L 53.5 3 Q 52.05 4.8 49.95 4.8 47.9 4.8 46.4 3 L 45.2 1.5 Q 43.7 -0.2 42.05 0.05 40.45 0.25 39.55 2.4 L 38.85 4.2 Q 37.95 6.35 36 6.95 34 7.6 32.05 6.4 L 30.45 5.4 Q 28.55 4.2 27.05 4.9 25.55 5.7 25.4 7.95 L 25.25 9.9 Q 25.1 12.2 23.45 13.4 21.7 14.65 19.5 14.1 L 17.6 13.65 Q 15.45 13.05 14.2 14.2 13.05 15.45 13.65 17.6 L 14.1 19.5 Q 14.65 21.7 13.4 23.45 12.2 25.15 9.9 25.25 L 7.95 25.4 Q 5.7 25.55 4.9 27.05 4.2 28.5 5.4 30.45 L 6.4 32.05 Q 7.65 34.05 7 36 6.35 38.05 4.2 38.85 L 2.4 39.55 Q 0.3 40.45 0.05 42.05 -0.2 43.75 1.5 45.2 L 3.05 46.45 Q 4.8 47.95 4.8 50 4.8 52.1 3.05 53.55 L 1.5 54.8 Q -0.25 56.25 0.05 57.9 0.3 59.55 2.4 60.4 L 4.2 61.15 Q 6.35 62 7 64 7.65 65.95 6.4 67.9 L 5.4 69.55 Q 4.2 71.45 4.9 72.95 5.7 74.45 7.95 74.6 L 9.9 74.75 Q 11.3 74.85 12.3 75.5 32.75 68.75 52 54.65 62.4 47.05 71.05 38.3 79.45 29.8 85.7 20.8 85.7 20.1 85.85 19.5 Z"></path>
</g>
			
	<linearGradient id="background-gradient" x1="0" y1="0" y2="1" x2="0" gradientTransform="rotate(210 0.5 0.5)">
		<stop stop-color="#ad7f39" offset="0%"></stop>
		<stop stop-color="#ffffff" offset="0%"></stop>
	</linearGradient>

			
			
			
			
		<linearGradient class="shapgradient" gradientTransform="rotate(0 0.5 0.5)" id="SvgjsLinearGradient1090"><stop stop-color="#343435" offset="0"></stop><stop stop-color="#343435" offset="0"></stop></linearGradient></defs><use xlink:href="#background" fill="url(#background-gradient)" class="background"></use><g class="geditable" mask="url(#mask)"><g mask="url(#mask)" fill="url(#SvgjsLinearGradient1090)" class="editable" transform="matrix(0.8,0,0,0.8,10,10)"><path d="M837.3333333333333 629.3333333333333H789.3333333333333V341.3333333333333C789.3333333333333 306.1333333333333 760.5333333333333 277.3333333333333 725.3333333333333 277.3333333333333H341.3333333333333C306.1333333333333 277.3333333333333 277.3333333333333 306.1333333333333 277.3333333333333 341.3333333333333V629.3333333333333H229.33333333333331C220.5333333333333 629.3333333333333 213.33333333333331 636.5333333333333 213.33333333333331 645.3333333333333V693.3333333333333C213.33333333333331 746.1333333333333 256.5333333333333 789.3333333333333 309.3333333333333 789.3333333333333H757.3333333333333C810.1333333333332 789.3333333333333 853.3333333333333 746.1333333333333 853.3333333333333 693.3333333333333V645.3333333333333C853.3333333333333 636.5333333333333 846.1333333333332 629.3333333333333 837.3333333333333 629.3333333333333ZM325.3333333333333 341.3333333333333C325.3333333333333 332.6633333333333 332.6633333333333 325.3333333333333 341.3333333333333 325.3333333333333H725.3333333333333C734.0033333333333 325.3333333333333 741.3333333333333 332.6633333333333 741.3333333333333 341.3333333333333V629.3333333333333H325.3333333333333V341.3333333333333ZM805.3333333333333 693.3333333333333C805.3333333333333 719.8033333333333 783.8033333333333 741.3333333333333 757.3333333333333 741.3333333333333H309.3333333333333C282.86333333333334 741.3333333333333 261.3333333333333 719.8033333333333 261.3333333333333 693.3333333333333V677.3333333333333H442.23333333333335C447.8033333333333 686.7233333333334 457.61333333333334 693.3333333333333 469.3333333333333 693.3333333333333H597.3333333333333C609.0533333333333 693.3333333333333 618.8533333333332 686.7233333333334 624.4333333333334 677.3333333333333H805.3333333333333V693.3333333333333ZM490.99333333333334 538.9833333333333L502.30333333333334 527.6733333333333C508.55333333333334 521.4233333333333 508.55333333333334 511.2933333333333 502.30333333333334 505.0433333333333L466.5833333333333 469.3333333333333L502.2933333333333 433.61333333333334C508.5433333333333 427.36333333333334 508.5433333333333 417.23333333333335 502.2933333333333 410.98333333333335L490.9833333333333 399.6733333333333C484.7333333333333 393.4233333333333 474.6033333333333 393.4233333333333 468.3533333333333 399.6733333333333L410.0133333333333 458.0133333333333C403.7633333333333 464.2633333333333 403.7633333333333 474.3933333333333 410.0133333333333 480.6433333333333L468.3533333333333 538.9833333333333C474.6033333333333 545.2333333333333 484.7433333333333 545.2333333333333 490.9933333333333 538.9833333333333ZM564.3733333333333 527.6833333333333L575.6833333333334 538.9933333333333C581.9333333333334 545.2433333333333 592.0633333333333 545.2433333333333 598.3133333333333 538.9933333333333L656.6533333333334 480.6533333333333C662.9033333333334 474.4033333333333 662.9033333333334 464.2733333333333 656.6533333333334 458.0233333333333L598.3133333333333 399.6833333333333C592.0633333333333 393.4333333333333 581.9333333333334 393.4333333333333 575.6833333333334 399.6833333333333L564.3733333333333 410.9933333333333C558.1233333333333 417.2433333333333 558.1233333333333 427.3733333333333 564.3733333333333 433.6233333333333L600.0833333333333 469.3333333333333L564.3733333333333 505.0533333333333C558.1233333333333 511.3033333333333 558.1233333333333 521.4333333333333 564.3733333333333 527.6833333333333Z " transform="matrix(0.09375,0,0,0.09375,0,0)"></path></g></g><use xlink:href="#gloss-top" opacity="1" class="background"></use></g></svg>