<svg xmlns="http://www.w3.org/2000/svg" version="1.1" xmlns:xlink="http://www.w3.org/1999/xlink" xmlns:svgjs="http://svgjs.com/svgjs" width="100" height="100" viewBox="0 0 100 100"><g class="wrap" transform="matrix(1,0,0,1,0,0)"><defs class="background">
			<g id="background">
<path fill="url(#background-gradient)" stroke="none" d=" M 85.35 85.35 Q 100 70.65 100 50 100 29.3 85.35 14.7 70.65 0 50 0 29.3 0 14.6 14.7 0 29.3 0 50 0 70.65 14.6 85.35 29.3 100 50 100 70.65 100 85.35 85.35 Z"></path>
</g><g id="middle-1">
<path fill="#ffffff" fill-opacity="0.6" stroke="none" d=" M 84 84 Q 98.05 70 98.05 50 98.05 30.1 84 16.05 69.9 1.9 50 1.9 30.1 1.9 16.05 16.05 1.9 30.1 1.9 50 1.9 70 16.05 84 30.1 98.05 50 98.05 69.9 98.05 84 84 Z"></path>
</g><mask id="mask">
<path fill="#FFFFFF" stroke="none" d=" M 85.35 85.35 Q 100 70.65 100 50 100 29.3 85.35 14.7 70.65 0 50 0 29.3 0 14.6 14.7 0 29.3 0 50 0 70.65 14.6 85.35 29.3 100 50 100 70.65 100 85.35 85.35 Z"></path>
</mask>
			
	<linearGradient id="background-gradient" x1="0" y1="0" y2="1" x2="0" gradientTransform="rotate(90 0.5 0.5)">
		<stop stop-color="#88400e" offset="0%"></stop>
		<stop stop-color="#ffe489" offset="86%"></stop>
	</linearGradient>

			
			
			
			
		<linearGradient class="shapgradient" gradientTransform="rotate(0 0.5 0.5)" id="SvgjsLinearGradient1003"><stop stop-color="#343435" offset="0"></stop><stop stop-color="#343435" offset="1"></stop></linearGradient></defs><use xlink:href="#background" fill="url(#background-gradient)" class="background"></use><use xlink:href="#middle-1" class="background"></use><g class="geditable"><g mask="url(#mask)" fill="url(#SvgjsLinearGradient1003)" class="editable" transform="matrix(0.8,0,0,0.8,16,10)"><path d="M512 207.9999176025391C512 163.7999176025391 476.2 127.99991760253911 432 127.99991760253911S352 163.7999176025391 352 207.9999176025391C352 244.3999176025391 376.3 275.0999176025391 409.5 284.79991760253915C408.9 300.8999176025391 405.3 313.29991760253915 398.5 321.69991760253913C383.1 340.8999176025391 349.2 344.0999176025391 313.3 347.3999176025391C285.1 349.99991760253914 255.9 352.7999176025391 232 364.2999176025391V220.29991760253907C264.5 210.09991760253908 288 179.79991760253907 288 143.99991760253906C288 99.79991760253907 252.2 63.999917602539064 208 63.999917602539064S128 99.7999176025391 128 143.9999176025391C128 179.7999176025391 151.5 210.09991760253908 184 220.29991760253913V419.59991760253916C151.5 429.8999176025391 128 460.19991760253913 128 495.99991760253914C128 540.1999176025391 163.8 575.9999176025391 208 575.9999176025391S288 540.1999176025391 288 495.99991760253914C288 461.99991760253914 266.8 432.8999176025391 236.8 421.3999176025391C239.89999999999998 416.19991760253913 244.6 411.5999176025391 251.7 407.99991760253914C267.9 399.79991760253915 292.1 397.59991760253916 317.8 395.19991760253913C360 391.29991760253915 407.8 386.79991760253915 436 351.69991760253913C450 334.29991760253915 457.1 311.8999176025391 457.6 283.7999176025391C489.20000000000005 273.0999176025391 512 243.1999176025391 512 207.9999176025391ZM208 111.99991760253911C225.6 111.99991760253911 240 126.3999176025391 240 143.9999176025391S225.6 175.9999176025391 208 175.9999176025391S176 161.5999176025391 176 143.9999176025391S190.4 111.99991760253911 208 111.99991760253911ZM208 527.9999176025391C190.4 527.9999176025391 176 513.5999176025391 176 495.99991760253914S190.4 463.99991760253914 208 463.99991760253914S240 478.3999176025391 240 495.99991760253914S225.6 527.9999176025391 208 527.9999176025391ZM432 239.9999176025391C414.4 239.9999176025391 400 225.59991760253908 400 207.9999176025391S414.4 175.9999176025391 432 175.9999176025391S464 190.39991760253912 464 207.9999176025391S449.6 239.9999176025391 432 239.9999176025391Z " transform="matrix(0.15625,0,0,0.15625,0,0.000012874603271484375)"></path></g></g></g></svg>